<?xml version="1.0" encoding="utf-8"?>
<!-- Generator: Adobe Illustrator 19.0.0, SVG Export Plug-In . SVG Version: 6.00 Build 0)  -->
<svg version="1.1" id="Layer_1" xmlns="http://www.w3.org/2000/svg" xmlns:xlink="http://www.w3.org/1999/xlink" x="0px" y="0px" viewBox="0 0 1000 333" style="enable-background:new 0 0 1000 333;" xml:space="preserve">
  <style type="text/css">
    #triangle {
      fill: url(#background-triangle);
    }

    #heart1outer {
      fill: brown;
      stroke: red;
      stroke-width: 10;
      stroke-linecap: round;
    }

    #heart1inner {
      fill: red;
    }

    #header {
      font-size: 1.8em;
    }
  </style>
  <linearGradient id="background-triangle" gradientUnits="userSpaceOnUse" x1="0" y1="50%" x2="100%" y2="0">
    <stop offset="0" style="stop-color:blue" />
    <stop offset="1" style="stop-color:red" />
  </linearGradient>
  <polygon id="triangle" points="0,0 1000,0 0,333 " />
  <path id="heart1outer" d="M500,123.8C512.5,99.7,538.8,83,570.3,83c43.5,0,78.8,31.7,78.8,70.9
	c0,79.6-86.6,138.5-149,179.1C437.7,292.3,351,233.5,351,153.9c0-39.1,35.3-70.9,78.8-70.9C461.2,83,487.4,99.7,500,123.8z" />
  <path id="heart1inner" d="M500,333L500,333c68.5-46.7,118-78.7,121.3-136c1.8-31.2-24.4-50.7-60.7-50.7
		c-26.3,0-50.2,21.4-60.6,40.7l0,0c-10.5-19.3-34.4-40.7-60.6-40.7c-36.2,0-62.5,19.4-60.7,50.7C382,254.3,431.5,286.3,500,333
		L500,333L500,333z" />
  <text id="header" text-anchor="middle" x="50%" y="1.5em">Caregiver's Love Compatibility With Other Archetypes</text>
</svg>