<?xml version="1.0" encoding="utf-8"?>
<!-- Generator: Adobe Illustrator 19.0.0, SVG Export Plug-In . SVG Version: 6.00 Build 0)  -->
<svg version="1.1" id="Layer_1" xmlns="http://www.w3.org/2000/svg" xmlns:xlink="http://www.w3.org/1999/xlink" x="0px" y="0px"
	 viewBox="0 84 1000 333" style="enable-background:new 0 84 1000 333;" xml:space="preserve">
<style type="text/css">
	.st0{fill:url(#triangle_1_);}
	.st1{stroke:#0000FF;stroke-width:10;stroke-linecap:round;}
	.st2{fill:#0000FF;}
	.st3{font-family:'ArialMT';}
	.st4{font-size:27px;}
</style>
<linearGradient id="triangle_1_" gradientUnits="userSpaceOnUse" x1="-13.5701" y1="248.7526" x2="986.4301" y2="82.7526" gradientTransform="matrix(1 0 0 1 0 4)">
	<stop  offset="0" style="stop-color:#FFFFFF"/>
	<stop  offset="1" style="stop-color:#000000"/>
</linearGradient>
<polygon id="triangle" class="st0" points="0,84 1000,84 0,417 "/>
<path id="heart_1_" class="st1" d="M504,669"/>
<path id="heart_3_" class="st1" d="M500,207.8c12.6-24.1,38.8-40.8,70.3-40.8c43.5,0,78.8,31.7,78.8,70.9
	c0,79.6-86.6,138.5-149,179.1C437.7,376.3,351,317.5,351,237.9c0-39.1,35.3-70.9,78.8-70.9C461.2,167,487.4,183.7,500,207.8z"/>
<g>
	<path id="heart_2_" class="st2" d="M500,417L500,417c68.5-46.7,118-78.7,121.3-136c1.8-31.2-24.4-50.7-60.7-50.7
		c-26.3,0-50.2,21.4-60.6,40.7l0,0c-10.5-19.3-34.4-40.7-60.6-40.7c-36.2,0-62.5,19.4-60.7,50.7C382,338.3,431.5,370.3,500,417
		L500,417L500,417z"/>
</g>
<text transform="matrix(1 0 0 1 179.2959 138)" class="st3 st4">Caregiver&apos;s Love Compatibility With Other Archetypes</text>
</svg>
