<?xml version="1.0" encoding="utf-8"?>
<!-- Generator: Adobe Illustrator 19.0.0, SVG Export Plug-In . SVG Version: 6.00 Build 0)  -->
<svg version="1.1" id="Layer_1" xmlns="http://www.w3.org/2000/svg" xmlns:xlink="http://www.w3.org/1999/xlink" x="0px" y="0px"
	 viewBox="0 0 300 250" style="enable-background:new 0 0 300 250;" xml:space="preserve">
<style type="text/css">
	.st0{fill:#A62B2A;stroke:#ED2224;stroke-width:10;stroke-linecap:round;}
	.st1{fill:#ED2224;}
</style>
<path id="heart1outer" class="st0" d="M150,44.2C162.1,21,187.7,5,218.3,5C260.7,5,295,35.4,295,73.1c0,76.4-84.2,133-145,171.9
	C89.3,205.9,5,149.5,5,73.1C5,35.5,39.3,5,81.7,5C112.2,5,137.7,21,150,44.2z"/>
<path id="heart1inner" class="st1" d="M150,250L150,250c68.5-46.7,118-78.7,121.3-136c1.8-31.2-24.4-50.7-60.7-50.7
	c-26.3,0-50.2,21.4-60.6,40.7l0,0c-10.5-19.3-34.4-40.7-60.6-40.7c-36.2,0-62.5,19.4-60.7,50.7C32,171.3,81.5,203.3,150,250L150,250
	L150,250z"/>
</svg>
